<svg width="1540" height="408" viewBox="0 0 1540 408" fill="none" xmlns="http://www.w3.org/2000/svg">
<path d="M101.321 38.9703C105.871 32.8771 114.257 28.0067 123.572 24.1159C133.24 20.0715 144.626 16.8287 154.063 14.4058C154.402 14.3145 154.742 14.2236 155.082 14.1332C159.482 13.0127 163.806 11.6639 169.222 10.1464C181.276 6.59167 205.015 1.64222 232.777 4.29664C232.815 4.29987 232.852 4.30312 232.89 4.30637C240.879 3.3774 248.581 2.67224 256.182 2.12874C290.917 -0.251862 323.803 -0.668907 359.971 1.04517C374.015 1.85702 390.168 2.58405 411.343 6.89691C432.841 11.2068 452.999 20.045 465.985 26.9343C487.021 38.0234 504.404 49.0711 522.228 60.8479C523.176 61.3139 524.131 61.7844 525.107 62.2682C535.463 67.4006 547.075 73.3563 558.211 80.2639C567.352 85.9143 576.469 92.5801 582.807 98.7853C600.838 116.682 606.577 126.524 613.014 135.193C613.214 135.392 613.416 135.591 613.619 135.792C638.822 160.637 666.16 185.822 692.982 207.732C710.453 221.883 725.344 232.583 743.194 240.968C745.241 241.942 747.346 242.904 749.51 243.859C762.676 249.686 776.138 254.391 790.427 258.245C805.003 262.179 820.221 265.277 835.815 267.776C836.561 267.895 837.312 268.014 838.068 268.132C847.85 268.224 857.257 267.749 865.998 267.21C878.273 266.451 889.163 265.555 898.037 265.879C919.383 266.685 943.187 271.701 961.048 274.979C963.959 275.519 966.716 276.019 969.267 276.452C977.069 276.329 984.859 276.1 992.626 275.771C999.13 275.495 1005.63 275.147 1012.11 274.731C1013.05 275.391 1014 276.077 1014.96 276.779C1026.99 285.513 1042.16 285.525 1065.82 284.568C1076.14 284.137 1088.08 283.5 1102.18 283.14C1111.27 282.9 1116.2 285.886 1120.27 288.327C1121.46 289.043 1122.59 289.711 1123.71 290.23C1127.57 292.006 1131.24 289.367 1135.52 286.224C1141.09 282.143 1147.63 277.22 1157.38 279.863C1164.09 281.674 1169.95 282.583 1175.08 282.832C1193.78 283.711 1202.64 276.008 1209.52 269.918C1212.1 267.631 1214.42 265.559 1216.93 264.187C1225.06 259.753 1237.83 260.327 1247.93 262.378C1255.94 264.031 1270.07 257.773 1280.16 251.252C1283.99 248.791 1289.57 247.422 1296.15 245.736C1302.93 243.998 1310.78 241.915 1318.56 237.971C1327.58 233.389 1334.47 229.713 1339.98 226.687C1346.47 223.125 1351.11 220.442 1355.12 218.048C1357.21 216.791 1359.15 215.613 1361.06 214.408C1367.03 210.622 1374.26 206.367 1380.5 202.021C1388.07 196.811 1393.78 191.574 1396.28 187.32C1397.2 186.862 1398.08 186.411 1398.94 185.954L1390.9 193.36C1397.97 188.372 1402.34 185.373 1406.29 175.704C1407.41 172.836 1410.09 169.663 1414.11 165.974L1414.14 168.144C1417.47 164.25 1421.86 161.668 1427.15 158.827C1438.62 152.841 1452.44 143.065 1468.45 139.166C1484.34 135.27 1501.26 135.199 1515.31 146.061C1521.75 151.048 1526.9 157.74 1530.56 164.22C1530.53 164.575 1530.64 165.646 1530.59 165.999C1534.61 174.223 1536.57 184.022 1535.82 194.205C1533.89 227.906 1518.84 265.493 1495.68 292.136C1494.23 293.338 1490.43 297.453 1488.83 298.441C1485.58 301.366 1482.25 304.168 1478.89 306.826C1445.06 333.001 1412.56 346.016 1381.12 356.506C1379.13 357.147 1377.08 357.793 1375.1 358.403C1351.83 365.533 1328.94 371.034 1305.98 375.628C1303.6 376.102 1301.26 376.553 1298.88 377.007C1280.64 385.279 1262.09 392.694 1248.69 396.472C1237.63 399.595 1229.02 398.843 1221.68 398.161C1216.62 397.689 1212.16 397.244 1207.84 398.079C1205.52 398.527 1202.37 399.251 1198.55 400.102C1196.37 400.588 1193.97 401.116 1191.4 401.657C1175.59 405.008 1152.75 408.781 1131.27 407.208C1120.19 406.414 1107.26 403.892 1095.01 401.271C1077.49 397.542 1061.4 393.589 1053.35 395.101C1039.2 397.781 1022.84 395.79 1008.52 393.731C1001.13 392.675 994.264 391.617 988.427 391.245C983.466 390.929 979.25 391.113 976.075 392.226C967.805 395.116 960.919 393.404 950.794 390.743C943.774 388.889 935.185 386.583 923.454 384.855C909.889 382.848 900.517 379.508 892.598 376.633C881.445 372.564 873.169 369.431 859.811 371.363C844.944 373.499 829.433 373.65 817.792 370.113C817.422 370.001 817.048 369.891 816.671 369.785C811.629 368.36 805.836 367.366 799.793 366.249C791.171 364.657 782.068 362.801 774.126 359.246C767.585 356.319 762.759 351.693 758.588 347.563C757.267 346.269 756.046 345.037 754.811 343.9C749.433 342.356 744.027 340.723 738.646 339.024C737.614 339.221 736.511 339.45 735.374 339.683C729.632 340.839 722.45 342.129 714.483 340.963C713.344 340.798 712.212 340.59 711.127 340.359C700.224 338.027 691.074 332.223 682.016 325.696C674.228 320.092 666.561 314.003 657.189 308.848C650.785 305.329 643.306 301.993 636.077 298.635C634.583 297.938 633.155 297.277 631.689 296.576C622.635 292.275 614.388 287.913 609.584 283.151C607.503 281.086 606.676 277.998 605.881 274.94C605.88 274.924 605.878 274.908 605.877 274.892C605.823 274.684 605.766 274.479 605.712 274.272C589.726 264.444 573.933 254.602 558.118 244.579C556.527 243.997 554.92 243.391 553.338 242.792C546.062 240.03 538.95 237.253 533.061 236.455C532.67 236.399 532.287 236.352 531.911 236.316C525.416 235.859 512.61 228.007 502.254 222.713C495.507 219.296 489.61 217.051 483.425 215.509C481.246 214.978 479.706 213.438 478.32 211.444C477.455 210.189 476.639 208.745 475.779 207.271C473.734 203.739 471.468 200.06 467.561 198.422C465.598 197.598 463.195 197.23 460.604 196.838C458.336 196.5 455.917 196.144 453.569 195.461C451.384 194.824 447.568 191.469 442.582 187.236C439.504 184.621 435.981 181.675 432.178 178.835C422.597 175.201 412.948 171.708 404.346 169.035C402.546 168.475 400.873 167.987 399.296 167.56C396.794 168.502 394.578 170.181 392.6 172.677C391.174 174.466 389.81 176.736 388.509 179.094C386.746 182.305 385.095 185.692 383.805 188.412C382.792 190.536 382.328 191.373 382.372 190.392C382.392 189.935 382.516 189.094 382.616 188.331C382.732 187.458 382.82 186.678 382.721 186.68C382.649 186.683 382.452 187.277 382.222 187.999C381.848 189.15 381.418 190.647 381.109 190.651C380.032 190.673 377.306 189.851 372.724 189.187C369.05 188.641 364.514 188.201 360.186 188.209C358.631 188.211 357.067 188.272 355.627 188.408C349.562 188.971 340.49 186.836 331.188 184.828C324.707 183.424 318.128 182.08 312.502 181.667C306.988 181.263 301.323 182.813 295.867 184.351C289.312 186.196 283.072 188.016 277.58 186.345C276.464 186.006 274.974 183.597 273.061 180.589C271.718 178.458 270.162 176.023 268.429 173.803C261.753 174.279 255.087 174.709 248.798 175.114C248.679 175.122 248.56 175.129 248.442 175.137C248.245 175.497 248.044 175.863 247.846 176.236C247.843 176.244 247.84 176.253 247.837 176.261C243.375 184.691 237.993 196.184 231.736 190.749C230.09 189.376 228.701 186.558 227.347 184.049C226.027 181.584 224.774 179.402 223.625 179.177C222.315 178.925 221.346 180.918 220.227 183.158C218.639 186.306 216.713 189.966 212.283 188.831C211.985 188.752 211.659 188.665 211.317 188.584C208.1 187.806 202.927 186.878 196.369 183.554C194.536 184.092 192.68 184.64 190.751 185.22C178.444 188.899 165.678 192.735 152.884 196.505C128.254 203.777 103.258 210.924 78.4513 218.157C74.5554 219.287 70.4724 219.841 66.2937 219.827C57.5117 219.813 48.3829 217.27 39.7614 212.271C26.408 205.207 18.7957 191.538 7.53437 179.821C1.85847 173.995 0.345931 165.019 0.114911 156.75C-0.265771 148.482 0.278012 140.495 2.05289 132.919C4.4504 122.685 8.89222 113.895 14.9555 107.117C17.8379 103.888 21.0653 101.129 24.5945 98.905C42.4261 87.7145 60.2058 76.6625 78.2324 65.8573C79.0987 65.1105 79.9711 64.3733 80.8521 63.6549C87.3992 58.3129 92.502 51.1297 97.7081 43.9188C98.9029 42.2631 100.096 40.6068 101.321 38.9703Z" fill="#BD2311"/>
</svg>
